# xmcd CD database file
#
# Track frame offsets:
#	150
#	13640
#	27290
#	42580
#	57415
#	72352
#	91372
#	107570
#	123072
#	137092
#	153412
#	180655
#	197027
#	211592
#	224630
#	235315
#
# Disc length: 3394 seconds
#
# Revision: 0
# Processed by: cddbd v1.5.1PL2 Copyright (c) Steve Scherf et al.
# Submitted via: CDex 1.51
#
DISCID=e20d4010
DTITLE=Jazz&Ôæáæ - 153 - New Orleans Memories
DYEAR=2005
DGENRE=Jazz
TTITLE0=Louis Armstrong - Do You Know What It Means to Miss New Orleans?
TTITLE1=Sidney Bechet - When the Saints Go Marchin' In
TTITLE2=Bunk Johnson - High Society
TTITLE3=Kid Ory - Tiger Rag
TTITLE4=Sidney Bechet - Wild Man Blues
TTITLE5=George Lewis - Burgundy Street Blues
TTITLE6=Bunk Johnson - Franklin Street Blues
TTITLE7=Jelly Roll Morton - Wolverine blues
TTITLE8=Jimmie Noone - Apex Blues
TTITLE9=King Oliver - West End blues
TTITLE10=Mahalia Jackson - Move On Up a Little Higher
TTITLE11=Tommy Ladnier - Really The Blues
TTITLE12=Richard M.Jones - Canal Street Blues
TTITLE13=Clifton Chenier - Louisiana Stomp
TTITLE14=Professor Longhair - Mardi Gras In New Orleans
TTITLE15=Billie Holiday - Farewell to Storyville
EXTD=YEAR: 2005
EXTT0=
EXTT1=
EXTT2=
EXTT3=
EXTT4=
EXTT5=
EXTT6=
EXTT7=
EXTT8=
EXTT9=
EXTT10=
EXTT11=
EXTT12=
EXTT13=
EXTT14=
EXTT15=
PLAYORDER=
